<?xml version="1.0" encoding="UTF-8"?>
<svg id="Layer_2" data-name="Layer 2" xmlns="http://www.w3.org/2000/svg" viewBox="0 0 421.15 209.12">
  <defs>
    <style>
      .cls-1, .cls-2 {
        fill: #fff;
      }

      .cls-3 {
        fill: #252b48;
      }

      .cls-4 {
        letter-spacing: 0em;
      }

      .cls-2 {
        font-family: PlusJakartaSans-Medium, 'Plus Jakarta Sans';
        font-size: 53.66px;
        font-variation-settings: 'wght' 500;
      }

      .cls-5 {
        letter-spacing: 0em;
      }
    </style>
  </defs>
  <g id="Layer_1-2" data-name="Layer 1">
    <g>
      <path class="cls-1" d="M132.26,54.11c.47,4.9,.33,9.73-1.96,14.29-4.02,8.01-12.86,12.63-21.56,11.19-9.22-1.52-16.19-8.64-17.19-17.83-.28-2.62-.17-5.31,.05-7.94,.28-3.41,2.51-5.53,6.14-5.83,3.37-.28,6.76-.25,10.14-.34,1.39-.03,2.77-.01,4.15-.01v.09c4.04,0,8.08-.01,12.12,.02,.87,0,1.75,.12,2.6,.29,3.52,.72,5.15,2.42,5.51,6.07Z"/>
      <path class="cls-1" d="M207.85,17.49c-1.63-2.82-3.37-5.56-5.22-8.17-.32-.46-.63-.9-.95-1.34l-1.2-1.62-.69-.51-.94-.69c-4.63-3.38-10.1-5.16-15.8-5.16H40.6c-5.71,0-11.17,1.78-15.79,5.16l-2.83,2.82c-.33,.44-.65,.88-.95,1.34-1.86,2.61-3.6,5.35-5.2,8.11-4.37,7.56-7.83,15.6-10.3,23.95-2.98,10.14-4.53,20.69-4.53,31.36s1.53,21.21,4.53,31.34c2.47,8.35,5.93,16.41,10.32,24.03,1.92,3.27,3.97,6.41,6.1,9.35l1.19,1.65,1.67,1.2c1.5,1.11,3.1,2.03,4.76,2.78,3.45,1.57,7.17,2.38,11.03,2.38H183.05c3.85,0,7.59-.81,11.03-2.38,1.66-.75,3.26-1.67,4.77-2.78l.94-.68,.71-.52,1.2-1.65c2.12-2.93,4.17-6.07,6.12-9.41,9.7-16.76,14.83-35.88,14.83-55.31s-5.13-38.58-14.8-55.25ZM40.6,132.48c-3.04,0-5.85-.98-8.15-2.66-1.93-2.66-3.72-5.43-5.39-8.27-8.31-14.37-13.08-31.03-13.08-48.81s4.76-34.43,13.08-48.79c1.65-2.87,3.45-5.63,5.39-8.29,2.3-1.68,5.11-2.67,8.15-2.67H183.05c3.04,0,5.84,.99,8.14,2.67,1.95,2.66,3.74,5.42,5.39,8.29,8.33,14.36,13.08,31.02,13.08,48.79s-4.77,34.44-13.08,48.81c-1.66,2.84-3.45,5.61-5.39,8.27-2.3,1.68-5.1,2.66-8.14,2.66H40.6Z"/>
      <path class="cls-3" d="M132.26,54.11c.47,4.9,.33,9.73-1.96,14.29-4.02,8.01-12.86,12.63-21.56,11.19-9.22-1.52-16.19-8.64-17.19-17.83-.28-2.62-.17-5.31,.05-7.94,.28-3.41,2.51-5.53,6.14-5.83,3.37-.28,6.76-.25,10.14-.34,1.39-.03,2.77-.01,4.15-.01v.09c4.04,0,8.08-.01,12.12,.02,.87,0,1.75,.12,2.6,.29,3.52,.72,5.15,2.42,5.51,6.07Z"/>
      <path class="cls-1" d="M283.48,73.65c1.17,2.2,1.75,4.71,1.75,7.54s-.58,5.38-1.75,7.63c-1.17,2.25-2.79,4.01-4.87,5.29-2.09,1.27-4.46,1.91-7.13,1.91s-4.87-.64-6.95-1.91c-2.08-1.28-3.72-3.04-4.92-5.29-1.19-2.25-1.79-4.79-1.79-7.63s.6-5.29,1.79-7.54c1.2-2.25,2.84-4.01,4.92-5.29,2.08-1.27,4.4-1.91,6.95-1.91s5.04,.65,7.13,1.96c2.08,1.3,3.7,3.05,4.87,5.24Z"/>
      <path class="cls-1" d="M421.15,66.51V21.11c0-8.39-6.87-15.26-15.26-15.26H192.23c1.86,2.61,3.6,5.35,5.23,8.17,9.67,16.68,14.8,35.81,14.8,55.25s-5.13,38.55-14.83,55.32c-1.95,3.33-4,6.48-6.12,9.4l-1.21,1.65-1.64,1.21c-1.51,1.1-3.11,2.02-4.77,2.78h222.2c8.39,0,15.26-6.88,15.26-15.27v-28.49c-1.86,2.38-4.12,4.34-6.79,5.86-3.56,2.03-7.5,3.04-11.83,3.04s-8.36-1.03-11.91-3.08c-3.56-2.06-6.39-4.86-8.5-8.42-2.11-3.55-3.17-7.58-3.17-12.08s1.04-8.59,3.13-12.12c2.08-3.52,4.9-6.3,8.45-8.33,3.56-2.03,7.56-3.04,12-3.04s8.43,1.01,11.95,3.04c2.62,1.51,4.85,3.43,6.67,5.77Zm-129.05,26.68c-1.97,3.55-4.65,6.37-8.04,8.46-3.38,2.08-7.24,3.12-11.58,3.12-3.5,0-6.68-.72-9.54-2.17-2.26-1.14-4.1-2.67-5.53-4.6v5.77h-9V40.7h9.41v23.2c1.42-1.64,3.15-2.98,5.17-4.03,2.77-1.45,5.94-2.17,9.49-2.17,4.28,0,8.13,1.03,11.54,3.08,3.42,2.06,6.11,4.86,8.08,8.42,1.97,3.55,2.96,7.55,2.96,11.99s-.99,8.45-2.96,12Zm78.61,10.58h-9.42v-26.58c0-2.22-.4-4.12-1.21-5.7-.8-1.59-1.91-2.82-3.33-3.71-1.41-.89-3.07-1.33-4.96-1.33s-3.55,.44-4.99,1.33c-1.45,.89-2.59,2.12-3.42,3.71-.83,1.58-1.25,3.48-1.25,5.7v26.58h-9.41v-26.58c0-2.22-.41-4.12-1.21-5.7-.81-1.59-1.9-2.82-3.29-3.71-1.39-.89-3.06-1.33-5-1.33s-3.56,.44-5,1.33c-1.44,.89-2.57,2.12-3.37,3.71-.81,1.58-1.21,3.48-1.21,5.7v26.58h-9.41V58.7h8.99v5.54c.96-1.75,2.3-3.15,4-4.21,2.5-1.55,5.36-2.33,8.58-2.33,3.61,0,6.82,.96,9.62,2.87,1.9,1.3,3.38,2.89,4.42,4.76,1.22-2.09,2.78-3.75,4.67-4.96,2.74-1.78,5.9-2.67,9.45-2.67,3.11,0,5.93,.72,8.46,2.17,2.52,1.44,4.54,3.44,6.04,5.99,1.5,2.56,2.25,5.48,2.25,8.75v29.16Zm38.82-35.36c-2.06-1.31-4.39-1.96-7-1.96s-4.96,.65-7.04,1.96c-2.08,1.3-3.72,3.05-4.92,5.24-1.19,2.2-1.79,4.71-1.79,7.54s.6,5.38,1.79,7.63c1.2,2.25,2.84,4.01,4.92,5.29,2.08,1.27,4.43,1.91,7.04,1.91s4.94-.64,7-1.91c2.05-1.28,3.68-3.04,4.87-5.29,1.2-2.25,1.79-4.79,1.79-7.63s-.59-5.34-1.79-7.54c-1.19-2.19-2.82-3.94-4.87-5.24Z"/>
      <path class="cls-1" d="M130.3,68.4c-4.02,8.01-12.86,12.63-21.56,11.19-9.22-1.52-16.19-8.64-17.19-17.83-.28-2.62-.17-5.31,.05-7.94,.28-3.41,2.51-5.53,6.14-5.83,3.37-.28,6.76-.25,10.14-.34,1.39-.03,2.77-.01,4.15-.01v.09c4.04,0,8.08-.01,12.12,.02,.87,0,1.75,.12,2.6,.29,3.52,.72,5.15,2.42,5.51,6.07,.47,4.9,.33,9.73-1.96,14.29Z"/>
      <path class="cls-1" d="M76.03,47.47c.71-2.2,1.04-4.45,.92-6.77-.42-8.63-7.23-15.81-15.72-16.55-8.97-.79-16.97,4.97-18.89,13.59-.74,3.34-.51,6.64,.61,9.9-.2,.12-.36,.2-.51,.29-1.21,.73-1.71,1.88-1.39,3.14,.32,1.25,1.32,2.01,2.77,2.01,10.02,.01,20.03,.01,30.05,.01,1.16,0,2.08-.42,2.59-1.48,.49-1.04,.35-2.03-.3-3-.19-.28-.24-.8-.13-1.14Zm-16.56-2.58c-1.18,0-2.23-1.05-2.23-2.22,.01-1.2,1.04-2.2,2.25-2.18,1.24,.01,2.18,1,2.15,2.25-.02,1.16-1.03,2.15-2.17,2.15Zm6.54-4.05c-2.6,.03-4.73-2.09-4.72-4.7,.01-2.55,2.1-4.62,4.67-4.62s4.64,2.05,4.65,4.63c0,2.58-2.05,4.67-4.6,4.69Z"/>
      <path class="cls-1" d="M180.9,47.43c.9-2.75,1.17-5.53,.75-8.4-1.15-7.87-7.51-14.01-15.39-14.87-7.99-.86-15.52,3.74-18.34,11.21-1.53,4.04-1.49,8.11-.15,12.19-.15-.09-.3-.18-.45-.27-.4,.61-.85,1.19-1.19,1.83-1.02,1.92,.36,3.96,2.7,3.97,6.19,.01,12.38,0,18.57,0h11.37c1.11,0,1.99-.42,2.52-1.41,.54-1.03,.4-2.01-.22-3-.2-.33-.29-.88-.17-1.25Zm-16.6-2.54c-1.15,0-2.15-1-2.17-2.15-.03-1.25,.9-2.23,2.15-2.25,1.22-.02,2.24,.96,2.25,2.17,0,1.18-1.05,2.23-2.23,2.23Zm6.53-4.05c-2.51,.03-4.67-2.09-4.7-4.62-.03-2.58,2.11-4.71,4.72-4.7,2.56,.02,4.64,2.11,4.64,4.66s-2.1,4.64-4.66,4.66Z"/>
      <text class="cls-2" transform="translate(0 196.24)"><tspan x="0" y="0">assis</tspan><tspan class="cls-5" x="125.83" y="0">t</tspan><tspan x="146.7" y="0">ant petb</tspan><tspan class="cls-4" x="365.2" y="0">o</tspan><tspan x="399.75" y="0">t</tspan></text>
    </g>
  </g>
</svg>