<?xml version="1.0" encoding="UTF-8"?>
<svg id="Layer_2" data-name="Layer 2" xmlns="http://www.w3.org/2000/svg" viewBox="0 0 426.02 209.11">
  <defs>
    <style>
      .cls-1 {
        fill: #fff;
      }

      .cls-2, .cls-3 {
        fill: #252b48;
      }

      .cls-3 {
        font-family: PlusJakartaSans-Medium, 'Plus Jakarta Sans';
        font-size: 53.66px;
        font-variation-settings: 'wght' 500;
      }

      .cls-4 {
        letter-spacing: 0em;
      }

      .cls-5 {
        letter-spacing: 0em;
      }
    </style>
  </defs>
  <g id="Layer_1-2" data-name="Layer 1">
    <g>
      <path class="cls-2" d="M222.65,72.73c0,19.43-5.13,38.55-14.83,55.32-1.95,3.34-4,6.48-6.12,9.4l-1.21,1.65-1.65,1.21c-1.51,1.1-3.1,2.03-4.77,2.78-3.44,1.57-7.18,2.38-11.03,2.38H40.6c-3.86,0-7.59-.81-11.03-2.38-1.66-.75-3.26-1.68-4.77-2.78l-1.66-1.21-1.19-1.65c-2.13-2.94-4.18-6.08-6.1-9.35-4.39-7.61-7.84-15.68-10.31-24.03-3-10.13-4.53-20.69-4.53-31.34s1.55-21.22,4.53-31.35c2.47-8.35,5.92-16.39,10.3-23.95,1.6-2.77,3.34-5.51,5.2-8.12,.3-.45,.62-.9,.95-1.34l2.83-2.82C29.43,1.78,34.89,0,40.6,0H183.05c5.7,0,11.17,1.78,15.79,5.16l1.64,1.19,1.19,1.62c.32,.44,.64,.88,.95,1.34,1.86,2.61,3.6,5.35,5.22,8.17,9.68,16.68,14.81,35.81,14.81,55.25Z"/>
      <path class="cls-1" d="M209.66,72.73c0,17.78-4.77,34.44-13.08,48.81-1.66,2.84-3.45,5.61-5.39,8.27-2.3,1.68-5.1,2.66-8.14,2.66H40.6c-3.04,0-5.84-.99-8.14-2.66-1.94-2.66-3.73-5.43-5.39-8.27-8.31-14.36-13.08-31.03-13.08-48.81s4.75-34.43,13.08-48.78c1.65-2.87,3.44-5.64,5.39-8.3,2.3-1.68,5.1-2.66,8.14-2.66H183.05c3.04,0,5.84,.99,8.14,2.66,1.95,2.66,3.74,5.43,5.39,8.3,8.33,14.35,13.08,31.02,13.08,48.78Z"/>
      <path class="cls-2" d="M421.15,21.11V124.36c0,8.39-6.87,15.26-15.26,15.26H183.69c1.66-.75,3.26-1.68,4.77-2.78l1.65-1.21,1.21-1.65c2.12-2.92,4.17-6.07,6.12-9.4,9.7-16.77,14.83-35.89,14.83-55.32s-5.13-38.57-14.81-55.25c-1.62-2.82-3.36-5.56-5.22-8.17h213.65c8.39,0,15.26,6.87,15.26,15.26Z"/>
      <g>
        <path class="cls-1" d="M272.48,104.77c-3.5,0-6.68-.72-9.54-2.17-2.86-1.44-5.07-3.53-6.62-6.25l1.08-1.75v9.16h-9V40.7h9.41v27.33l-1.5-2.17c1.67-2.55,3.89-4.55,6.66-6,2.78-1.44,5.94-2.17,9.5-2.17,4.28,0,8.12,1.03,11.54,3.08,3.42,2.06,6.11,4.86,8.08,8.41,1.97,3.55,2.96,7.55,2.96,12s-.99,8.44-2.96,12c-1.97,3.55-4.65,6.37-8.04,8.46-3.39,2.08-7.25,3.12-11.58,3.12Zm-1-8.75c2.67,0,5.04-.64,7.12-1.92,2.08-1.28,3.71-3.04,4.87-5.29,1.17-2.25,1.75-4.79,1.75-7.62s-.58-5.34-1.75-7.54c-1.17-2.19-2.79-3.94-4.87-5.25-2.08-1.3-4.46-1.96-7.12-1.96s-4.87,.64-6.96,1.92c-2.08,1.28-3.72,3.04-4.92,5.29s-1.79,4.76-1.79,7.54,.6,5.37,1.79,7.62,2.83,4.01,4.92,5.29c2.08,1.28,4.4,1.92,6.96,1.92Z"/>
        <path class="cls-1" d="M304.23,103.77V58.7h9v9.83l-1.17-1.58c.94-3.05,2.67-5.36,5.17-6.92,2.5-1.55,5.36-2.33,8.58-2.33,3.61,0,6.82,.96,9.62,2.87,2.8,1.92,4.68,4.46,5.62,7.62l-2.67,.25c1.33-3.61,3.37-6.3,6.12-8.08,2.75-1.78,5.9-2.67,9.46-2.67,3.11,0,5.93,.72,8.46,2.17,2.53,1.45,4.54,3.44,6.04,6,1.5,2.56,2.25,5.47,2.25,8.75v29.16h-9.41v-26.58c0-2.22-.4-4.12-1.21-5.71-.81-1.58-1.92-2.82-3.33-3.71-1.42-.89-3.07-1.33-4.96-1.33s-3.55,.44-5,1.33c-1.45,.89-2.58,2.12-3.42,3.71-.83,1.58-1.25,3.49-1.25,5.71v26.58h-9.41v-26.58c0-2.22-.4-4.12-1.21-5.71-.81-1.58-1.9-2.82-3.29-3.71-1.39-.89-3.05-1.33-5-1.33s-3.56,.44-5,1.33c-1.44,.89-2.57,2.12-3.37,3.71-.81,1.58-1.21,3.49-1.21,5.71v26.58h-9.41Z"/>
        <path class="cls-1" d="M402.53,104.77c-4.39,0-8.36-1.03-11.91-3.08-3.56-2.05-6.39-4.86-8.5-8.41-2.11-3.55-3.17-7.58-3.17-12.08s1.04-8.59,3.12-12.12c2.08-3.53,4.9-6.3,8.46-8.33,3.55-2.03,7.55-3.04,12-3.04s8.43,1.01,11.95,3.04c3.53,2.03,6.33,4.8,8.41,8.33,2.08,3.53,3.12,7.57,3.12,12.12s-1.06,8.61-3.17,12.16c-2.11,3.55-4.94,6.35-8.5,8.37-3.56,2.03-7.5,3.04-11.83,3.04Zm0-8.75c2.61,0,4.94-.64,7-1.92,2.05-1.28,3.68-3.04,4.87-5.29,1.19-2.25,1.79-4.79,1.79-7.62s-.6-5.34-1.79-7.54c-1.2-2.19-2.82-3.94-4.87-5.25-2.05-1.3-4.39-1.96-7-1.96s-4.96,.65-7.04,1.96c-2.08,1.31-3.72,3.05-4.92,5.25-1.19,2.19-1.79,4.71-1.79,7.54s.6,5.37,1.79,7.62,2.83,4.01,4.92,5.29c2.08,1.28,4.43,1.92,7.04,1.92Z"/>
      </g>
      <path class="cls-2" d="M112.03,47.73c4.04,0,8.08-.02,12.12,.01,.87,0,1.75,.12,2.6,.29,3.52,.72,5.15,2.42,5.5,6.07,.48,4.9,.33,9.73-1.95,14.29-4.02,8.01-12.86,12.63-21.56,11.19-9.22-1.53-16.19-8.65-17.19-17.83-.29-2.62-.17-5.31,.05-7.95,.28-3.4,2.51-5.53,6.14-5.83,3.37-.28,6.76-.25,10.14-.34,1.38-.03,2.77,0,4.15,0,0,.03,0,.06,0,.09Z"/>
      <path class="cls-2" d="M42.95,47.64c-1.11-3.27-1.35-6.56-.6-9.91,1.91-8.62,9.92-14.38,18.88-13.59,8.5,.75,15.3,7.93,15.73,16.56,.11,2.32-.21,4.56-.92,6.77-.11,.34-.06,.85,.13,1.14,.65,.97,.79,1.96,.29,2.99-.51,1.06-1.43,1.49-2.59,1.49-10.02,0-20.03,0-30.05,0-1.44,0-2.44-.77-2.77-2.01-.33-1.26,.18-2.41,1.39-3.14,.15-.09,.31-.18,.51-.29Zm27.66-11.5c0-2.58-2.06-4.62-4.65-4.62-2.57,0-4.66,2.07-4.67,4.62,0,2.6,2.12,4.72,4.72,4.7,2.56-.02,4.6-2.12,4.6-4.7Zm-11.12,4.34c-1.22-.02-2.24,.98-2.25,2.18,0,1.17,1.05,2.22,2.23,2.22,1.14,0,2.14-.99,2.17-2.15,.03-1.25-.91-2.23-2.15-2.25Z"/>
      <path class="cls-2" d="M147.77,47.56c-1.33-4.08-1.38-8.15,.15-12.19,2.82-7.47,10.35-12.08,18.35-11.21,7.88,.85,14.24,7,15.39,14.87,.42,2.86,.14,5.65-.75,8.4-.12,.37-.03,.91,.17,1.25,.61,.99,.75,1.97,.21,3-.52,.99-1.41,1.42-2.52,1.42-3.79,0-7.58,0-11.36,0-6.19,0-12.38,0-18.57,0-2.34,0-3.72-2.05-2.7-3.97,.34-.64,.79-1.22,1.19-1.83,.15,.09,.3,.18,.45,.27Zm27.72-11.38c0-2.55-2.08-4.65-4.64-4.66-2.61-.01-4.75,2.11-4.72,4.7,.03,2.53,2.19,4.65,4.7,4.62,2.56-.03,4.66-2.12,4.66-4.66Zm-11.21,4.31c-1.24,.02-2.18,1-2.15,2.25,.03,1.16,1.03,2.15,2.17,2.15,1.18,0,2.24-1.05,2.23-2.23,0-1.21-1.02-2.19-2.25-2.17Z"/>
      <path class="cls-1" d="M70.61,36.14c0,2.58-2.04,4.67-4.6,4.7-2.6,.02-4.73-2.1-4.72-4.7,0-2.55,2.1-4.62,4.67-4.62,2.59,0,4.64,2.04,4.65,4.62Z"/>
      <path class="cls-1" d="M59.49,40.48c1.24,.02,2.18,1,2.15,2.25-.03,1.16-1.03,2.15-2.17,2.15-1.18,0-2.24-1.05-2.23-2.22,0-1.2,1.03-2.19,2.25-2.18Z"/>
      <path class="cls-1" d="M175.49,36.18c0,2.54-2.1,4.64-4.66,4.66-2.52,.02-4.67-2.09-4.7-4.62-.03-2.58,2.11-4.71,4.72-4.7,2.56,.01,4.64,2.1,4.64,4.66Z"/>
      <path class="cls-1" d="M164.28,40.48c1.22-.02,2.24,.96,2.25,2.17,0,1.17-1.05,2.23-2.23,2.23-1.14,0-2.14-.99-2.17-2.15-.03-1.25,.91-2.23,2.15-2.25Z"/>
      <text class="cls-3" transform="translate(0 196.23)"><tspan x="0" y="0">assis</tspan><tspan class="cls-5" x="125.83" y="0">t</tspan><tspan x="146.7" y="0">ant petb</tspan><tspan class="cls-4" x="365.2" y="0">o</tspan><tspan x="399.75" y="0">t</tspan></text>
    </g>
  </g>
</svg>